{"accessors" : [{"bufferView" : 0, "byteOffset" : 0, "componentType" : 5123, "count" : 1728, "type" : "SCALAR", "max" : [1727], "min" : [0]}, {"bufferView" : 1, "byteOffset" : 0, "componentType" : 5126, "count" : 1728, "type" : "VEC3", "max" : [56.985416412353516, 3.470524549484253, -51.00235366821289], "min" : [-56.98557662963867, -56.05371856689453, -112.8634262084961], "name" : "POSITION"}, {"bufferView" : 1, "byteOffset" : 12, "componentType" : 5126, "count" : 1728, "type" : "VEC3", "max" : [0.9899197220802307, 0.9882820248603821, 0.9993827939033508], "min" : [-0.9899197220802307, -0.98833829164505, -0.9988280534744263], "name" : "NORMAL"}, {"bufferView" : 1, "byteOffset" : 24, "componentType" : 5126, "count" : 1728, "type" : "VEC3", "max" : [0.501960813999176, 0.501960813999176, 0.501960813999176], "min" : [0.501960813999176, 0.501960813999176, 0.501960813999176], "name" : "COLOR_0"}, {"bufferView" : 1, "byteOffset" : 36, "componentType" : 5126, "count" : 1728, "type" : "VEC2", "max" : [0.9924898743629456, 0.9055225849151611], "min" : [0.8267397284507751, 0.7397726774215698], "name" : "TEXCOORD_0"}, {"bufferView" : 0, "byteOffset" : 3456, "componentType" : 5123, "count" : 24018, "type" : "SCALAR", "max" : [24017], "min" : [0]}, {"bufferView" : 2, "byteOffset" : 0, "componentType" : 5126, "count" : 24018, "type" : "VEC3", "max" : [111.59115600585938, 104.08602905273438, 396.45806884765625], "min" : [-111.59115600585938, -70.05162048339844, 7.100358963012695], "name" : "POSITION"}, {"bufferView" : 2, "byteOffset" : 12, "componentType" : 5126, "count" : 24018, "type" : "VEC3", "max" : [1.0000044107437134, 1.0000039339065552, 1.0000044107437134], "min" : [-1.0000044107437134, -1.0000042915344238, -1.0000035762786865], "name" : "NORMAL"}, {"bufferView" : 2, "byteOffset" : 24, "componentType" : 5126, "count" : 24018, "type" : "VEC3", "max" : [1, 1, 1], "min" : [0.9999999403953552, 0.9999999403953552, 0.9999999403953552], "name" : "COLOR_0"}, {"bufferView" : 2, "byteOffset" : 36, "componentType" : 5126, "count" : 24018, "type" : "VEC2", "max" : [0.9916607141494751, 0.9977591037750244], "min" : [0.0014910836471244693, 0.0024407505989074707], "name" : "TEXCOORD_0"}, {"bufferView" : 0, "byteOffset" : 51492, "componentType" : 5123, "count" : 4008, "type" : "SCALAR", "max" : [4007], "min" : [0]}, {"bufferView" : 3, "byteOffset" : 0, "componentType" : 5126, "count" : 4008, "type" : "VEC3", "max" : [60.108219146728516, 2.18375825881958, 26.661649703979492], "min" : [-60.05036544799805, -10.927255630493164, -27.426963806152344], "name" : "POSITION"}, {"bufferView" : 3, "byteOffset" : 12, "componentType" : 5126, "count" : 4008, "type" : "VEC3", "max" : [0.984726071357727, 0.994285523891449, 0.9975023865699768], "min" : [-0.9847263693809509, -0.9942856431007385, -0.9990568161010742], "name" : "NORMAL"}, {"bufferView" : 3, "byteOffset" : 24, "componentType" : 5126, "count" : 4008, "type" : "VEC2", "max" : [1, 1], "min" : [0, 0], "name" : "TEXCOORD_0"}, {"bufferView" : 4, "byteOffset" : 0, "componentType" : 5126, "normalized" : false, "count" : 31, "type" : "SCALAR", "max" : [1], "min" : [0]}, {"bufferView" : 4, "byteOffset" : 124, "componentType" : 5126, "normalized" : false, "count" : 31, "type" : "VEC3", "max" : [0, 111.35282135009766, -6.328525543212891], "min" : [0, 111.35282135009766, -6.328525543212891]}, {"bufferView" : 5, "byteOffset" : 0, "componentType" : 5126, "normalized" : false, "count" : 31, "type" : "SCALAR", "max" : [1], "min" : [0]}, {"bufferView" : 5, "byteOffset" : 124, "componentType" : 5126, "normalized" : false, "count" : 31, "type" : "VEC3", "max" : [1, 1, 1], "min" : [1, 1, 1]}, {"bufferView" : 6, "byteOffset" : 0, "componentType" : 5126, "normalized" : false, "count" : 31, "type" : "SCALAR", "max" : [1], "min" : [0]}, {"bufferView" : 6, "byteOffset" : 124, "componentType" : 5126, "normalized" : false, "count" : 31, "type" : "VEC3", "max" : [0, 0, -110.55674743652344], "min" : [0, 0, -110.55674743652344]}, {"bufferView" : 7, "byteOffset" : 0, "componentType" : 5126, "normalized" : false, "count" : 31, "type" : "SCALAR", "max" : [1], "min" : [0]}, {"bufferView" : 7, "byteOffset" : 124, "componentType" : 5126, "normalized" : false, "count" : 31, "type" : "VEC3", "max" : [1, 1, 1], "min" : [1, 1, 1]}], "animations" : [{"channels" : [{"sampler" : 0, "target" : {"node" : 9, "path" : "translation"}}, {"sampler" : 1, "target" : {"node" : 9, "path" : "scale"}}, {"sampler" : 2, "target" : {"node" : -1, "path" : "translation"}}, {"sampler" : 3, "target" : {"node" : -1, "path" : "scale"}}], "samplers" : [{"input" : 14, "interpolation" : "CUBICSPLINE", "output" : 15}, {"input" : 16, "interpolation" : "CUBICSPLINE", "output" : 17}, {"input" : 18, "interpolation" : "CUBICSPLINE", "output" : 19}, {"input" : 20, "interpolation" : "CUBICSPLINE", "output" : 21}], "name" : "Skin(glasses)"}], "asset" : {"generator" : "Aspose.3D 24.9.1", "version" : "2.0"}, "buffers" : [{"uri" : "data:application/octet-stream;base64,", "byteLength" : 1322604}], "bufferViews" : [{"buffer" : 0, "byteOffset" : 0, "byteLength" : 59508, "target" : 34963}, {"buffer" : 0, "byteOffset" : 59512, "byteLength" : 76032, "byteStride" : 44, "target" : 34962}, {"buffer" : 0, "byteOffset" : 135548, "byteLength" : 1056792, "byteStride" : 44, "target" : 34962}, {"buffer" : 0, "byteOffset" : 1192344, "byteLength" : 128256, "byteStride" : 32, "target" : 34962}, {"buffer" : 0, "byteOffset" : 1320604, "byteLength" : 496}, {"buffer" : 0, "byteOffset" : 1321104, "byteLength" : 496}, {"buffer" : 0, "byteOffset" : 1321604, "byteLength" : 496}, {"buffer" : 0, "byteOffset" : 1322104, "byteLength" : 496}], "images" : [{"uri" : "./base.jpg"}], "materials" : [{"name" : "Material #8161457", "pbrMetallicRoughness" : {"baseColorFactor" : [1, 1, 1, 1], "baseColorTexture" : {"index" : 0, "texCoord" : 0}, "metallicFactor" : 0, "roughnessFactor" : 0}, "emissiveFactor" : [0, 0, 0], "alphaMode" : "OPAQUE", "doubleSided" : false}, {"name" : "Material #8161458", "pbrMetallicRoughness" : {"baseColorFactor" : [0, 0, 0, 1], "metallicFactor" : 0, "roughnessFactor" : 0}, "emissiveFactor" : [0, 0, 0], "alphaMode" : "OPAQUE", "doubleSided" : false}], "meshes" : [{"primitives" : [{"attributes" : {"POSITION" : 1, "NORMAL" : 2, "COLOR_0" : 3, "TEXCOORD_0" : 4}, "indices" : 0, "material" : 0, "mode" : 4}], "name" : ""}, {"primitives" : [{"attributes" : {"POSITION" : 6, "NORMAL" : 7, "COLOR_0" : 8, "TEXCOORD_0" : 9}, "indices" : 5, "material" : 0, "mode" : 4}], "name" : ""}, {"primitives" : [{"attributes" : {"POSITION" : 11, "NORMAL" : 12, "TEXCOORD_0" : 13}, "indices" : 10, "material" : 1, "mode" : 4}], "name" : "node"}], "nodes" : [{"matrix" : [1, 0, 0, 0, 0, 6.123233995736766E-17, -1, 0, 0, 1, 6.123233995736766E-17, 0, 0, 340.1751708984375, -2.8170835971832275, 1], "mesh" : 0, "name" : "eye"}, {"matrix" : [1, 0, 0, 0, 0, 1.2246468258662604E-16, -1, 0, 0, 1, 1.2246468258662604E-16, 0, 0, -7.302055358886719, -3.1918295917421347E-07, 1], "mesh" : 1, "name" : "Cat"}, {"matrix" : [2.6981022074903433E-06, 0, 0.9999999999963601, 0, -3.2584137000716596E-07, -0.9999999999999469, 8.791533197112122E-13, 0, 0.9999999999963071, -3.2584137000835196E-07, -2.6981022074902E-06, 0, 33.4884033203125, 60.37223434448242, 0.00016784669423941523, 1], "mesh" : 2, "name" : "Glasses"}, {"children" : [2], "matrix" : [0.9946179303027292, -0.10361067860173245, -6.186030478198658E-08, 0, 0.10361067860117737, 0.9946179302990327, -2.733506765909172E-06, 0, 3.447478592882032E-07, 2.71238545382015E-06, 0.9999999999962621, 0, 20.685272216796875, 6.866455078125E-05, -1.1890333553310484E-06, 1], "name" : "Bip001 Head"}, {"children" : [3], "matrix" : [0.9958207506844178, 0.09132925328897107, -4.012077740652138E-08, 0, -0.0913292532889754, 0.9958207506844103, -1.2451981364783813E-07, 0, 2.8580801074865367E-08, 1.2766361494378476E-07, 0.9999999999999915, 0, 23.647903442382812, 0.035637855529785156, -5.529152986127883E-06, 1], "name" : "Bip001 Neck"}, {"children" : [4], "matrix" : [1, 0, 0, 0, 0, 1, -1.1102230246251565E-16, 0, 0, 1.1102230246251565E-16, 1, 0, 21.019149780273438, -0.018829345703125, -5.2225004765205085E-08, 1], "name" : "Bip001 Spine2"}, {"children" : [5], "matrix" : [1, -1.862645149230957E-09, -1.5845103007450234E-12, 0, 1.8626451492306785E-09, 1, -1.757600731622233E-10, 0, 1.5845106281236711E-12, 1.7576007315927193E-10, 1, 0, 18.391769409179688, -0.016737937927246094, -4.641788109438494E-08, 1], "name" : "Bip001 Spine1"}, {"children" : [6], "matrix" : [0.9999238763695049, 0.012338616780369516, 1.459530482279504E-06, 0, -0.012338616778450167, 0.9999238763697268, -1.316820191908688E-06, 0, -1.4756671172373123E-06, 1.2987113634776575E-06, 0.9999999999980679, 0, 24.44176483154297, -0.3922743797302246, 3.439794818405062E-05, 1], "name" : "Bip001 Spine"}, {"children" : [7], "matrix" : [1.3868001361214163E-06, 0, 0.9999999999990384, 0, 0.9999999999980769, 1.3868001361214163E-06, -1.3868001361200829E-06, 0, -1.3868001361200829E-06, 0.9999999999990384, 1.923214617546379E-12, 0, 0, 0, 0, 1], "name" : "Bip001 Pelvis"}, {"children" : [8], "rotation" : [-0.5, -0.5, -0.5, 0.5], "scale" : [1, 1, 1], "translation" : [0, 111.35282135009766, -6.328525543212891], "name" : "Bip001"}], "samplers" : [{"magFilter" : 9729, "minFilter" : 9729, "wrapS" : 10497, "wrapT" : 10497}], "scene" : 0, "scenes" : [{"nodes" : [0, 1, 9]}], "textures" : [{"sampler" : 0, "source" : 0, "name" : "Map #17"}]}